<svg xmlns="http://www.w3.org/2000/svg" xmlns:xlink="http://www.w3.org/1999/xlink" width="935pt" height="1712" viewBox="0 0 935 1284"><g id="graph0" class="graph" transform="scale(1 1) rotate(0) translate(4 1280)"><title>%3</title><polygon fill="#fff" stroke="none" points="-4 4 -4 -1280 931 -1280 931 4 -4 4"/><g id="node1" class="node"><title>1856372</title><ellipse cx="425" cy="-1095" fill="#add8e6" stroke="#add8e6" rx="80.415" ry="52.152"/><text x="425" y="-1120" font-family="Times,serif" font-size="10" text-anchor="middle">code:decoder_t * p_dec</text><text x="425" y="-1109" font-family="Times,serif" font-size="10" text-anchor="middle">functionId:1856369</text><text x="425" y="-1098" font-family="Times,serif" font-size="10" text-anchor="middle">childNum:0</text><text x="425" y="-1087" font-family="Times,serif" font-size="10" text-anchor="middle">isCFGNode:True</text><text x="425" y="-1076" font-family="Times,serif" font-size="10" text-anchor="middle">type:Parameter</text><text x="425" y="-1065" font-family="Times,serif" font-size="10" text-anchor="middle">id:1856372</text></g><g id="node2" class="node"><title>1856423</title><ellipse cx="268" cy="-787" fill="#add8e6" stroke="#add8e6" rx="268.551" ry="52.152"/><text x="268" y="-812" font-family="Times,serif" font-size="10" text-anchor="middle">code:block_t * p_buf = decoder_NewAudioBuffer ( p_dec , p_sys -&gt; frame . i_samples ) ;</text><text x="268" y="-801" font-family="Times,serif" font-size="10" text-anchor="middle">functionId:1856369</text><text x="268" y="-790" font-family="Times,serif" font-size="10" text-anchor="middle">childNum:1</text><text x="268" y="-779" font-family="Times,serif" font-size="10" text-anchor="middle">isCFGNode:True</text><text x="268" y="-768" font-family="Times,serif" font-size="10" text-anchor="middle">type:IdentifierDeclStatement</text><text x="268" y="-757" font-family="Times,serif" font-size="10" text-anchor="middle">id:1856423</text></g><g id="edge1" class="edge"><title>1856372-&gt;1856423</title><path fill="none" stroke="#f08080" d="M357.922,-1065.99C327.708,-1049.67 294.867,-1025.93 277,-994 252.484,-950.184 252.13,-892.545 256.821,-849.381"/><polygon fill="#f08080" stroke="#f08080" points="260.315 -849.641 258.037 -839.294 253.365 -848.803 260.315 -849.641"/><text x="289.5" y="-938.5" font-family="Times,serif" font-size="10" text-anchor="middle">p_dec</text></g><g id="node3" class="node"><title>1856441</title><ellipse cx="458" cy="-941" fill="#add8e6" stroke="#add8e6" rx="147.117" ry="52.152"/><text x="458" y="-966" font-family="Times,serif" font-size="10" text-anchor="middle">code:decoder_sys_t * p_sys = p_dec -&gt; p_sys ;</text><text x="458" y="-955" font-family="Times,serif" font-size="10" text-anchor="middle">functionId:1856369</text><text x="458" y="-944" font-family="Times,serif" font-size="10" text-anchor="middle">childNum:0</text><text x="458" y="-933" font-family="Times,serif" font-size="10" text-anchor="middle">isCFGNode:True</text><text x="458" y="-922" font-family="Times,serif" font-size="10" text-anchor="middle">type:IdentifierDeclStatement</text><text x="458" y="-911" font-family="Times,serif" font-size="10" text-anchor="middle">id:1856441</text></g><g id="edge2" class="edge"><title>1856372-&gt;1856441</title><path fill="none" stroke="#add8e6" d="M432.984,-1042.67C434.789,-1032.48 436.823,-1021.87 439,-1012 439.657,-1009.02 440.359,-1005.98 441.093,-1002.92"/><polygon fill="#add8e6" stroke="#add8e6" points="444.52 -1003.64 443.525 -993.088 437.725 -1001.95 444.52 -1003.64"/></g><g id="edge3" class="edge"><title>1856372-&gt;1856441</title><path fill="none" stroke="#f08080" d="M436.08,-1042.96C438.841,-1030.25 441.829,-1016.49 444.684,-1003.33"/><polygon fill="#f08080" stroke="#f08080" points="448.135 -1003.93 446.837 -993.42 441.294 -1002.45 448.135 -1003.93"/><text x="455.5" y="-1015.5" font-family="Times,serif" font-size="10" text-anchor="middle">p_dec</text></g><g id="node4" class="node"><title>1856377</title><ellipse cx="249" cy="-181" fill="#add8e6" stroke="#add8e6" rx="74.43" ry="52.152"/><text x="249" y="-206" font-family="Times,serif" font-size="10" text-anchor="middle">code:return p_buf ;</text><text x="249" y="-195" font-family="Times,serif" font-size="10" text-anchor="middle">functionId:1856369</text><text x="249" y="-184" font-family="Times,serif" font-size="10" text-anchor="middle">childNum:3</text><text x="249" y="-173" font-family="Times,serif" font-size="10" text-anchor="middle">isCFGNode:True</text><text x="249" y="-162" font-family="Times,serif" font-size="10" text-anchor="middle">type:ReturnStatement</text><text x="249" y="-151" font-family="Times,serif" font-size="10" text-anchor="middle">id:1856377</text></g><g id="edge4" class="edge"><title>1856423-&gt;1856377</title><path fill="none" stroke="#f08080" d="M206.98,-735.746C181.187,-708.762 157,-673.048 157,-634 157,-634 157,-634 157,-324 157,-289.26 176.635,-256.312 197.763,-230.915"/><polygon fill="#f08080" stroke="#f08080" points="200.466 -233.14 204.347 -223.282 195.165 -228.568 200.466 -233.14"/><text x="169.5" y="-476.5" font-family="Times,serif" font-size="10" text-anchor="middle">p_buf</text></g><g id="node5" class="node"><title>1856381</title><ellipse cx="602" cy="-325" fill="#add8e6" stroke="#add8e6" rx="324.904" ry="52.152"/><text x="602" y="-350" font-family="Times,serif" font-size="10" text-anchor="middle">code:p_buf -&gt; i_length = date_Increment ( &amp; p_sys -&gt; end_date , p_sys -&gt; frame . i_samples ) - p_buf -&gt; i_pts</text><text x="602" y="-339" font-family="Times,serif" font-size="10" text-anchor="middle">functionId:1856369</text><text x="602" y="-328" font-family="Times,serif" font-size="10" text-anchor="middle">childNum:1</text><text x="602" y="-317" font-family="Times,serif" font-size="10" text-anchor="middle">isCFGNode:True</text><text x="602" y="-306" font-family="Times,serif" font-size="10" text-anchor="middle">type:ExpressionStatement</text><text x="602" y="-295" font-family="Times,serif" font-size="10" text-anchor="middle">id:1856381</text></g><g id="edge5" class="edge"><title>1856423-&gt;1856381</title><path fill="none" stroke="#f08080" d="M244.733,-734.802C211.119,-652.201 161.698,-489.373 246,-396 260.203,-380.268 291.541,-367.97 330.022,-358.388"/><polygon fill="#f08080" stroke="#f08080" points="331.043 -361.742 339.953 -356.01 329.413 -354.935 331.043 -361.742"/><text x="213.5" y="-553.5" font-family="Times,serif" font-size="10" text-anchor="middle">p_buf</text></g><g id="node6" class="node"><title>1856406</title><ellipse cx="448" cy="-479" fill="#add8e6" stroke="#add8e6" rx="171.18" ry="52.152"/><text x="448" y="-504" font-family="Times,serif" font-size="10" text-anchor="middle">code:p_buf -&gt; i_pts = date_Get ( &amp; p_sys -&gt; end_date )</text><text x="448" y="-493" font-family="Times,serif" font-size="10" text-anchor="middle">functionId:1856369</text><text x="448" y="-482" font-family="Times,serif" font-size="10" text-anchor="middle">childNum:0</text><text x="448" y="-471" font-family="Times,serif" font-size="10" text-anchor="middle">isCFGNode:True</text><text x="448" y="-460" font-family="Times,serif" font-size="10" text-anchor="middle">type:ExpressionStatement</text><text x="448" y="-449" font-family="Times,serif" font-size="10" text-anchor="middle">id:1856406</text></g><g id="edge6" class="edge"><title>1856423-&gt;1856406</title><path fill="none" stroke="#f08080" d="M340.77,-736.389C357.903,-721.835 374.727,-704.736 387,-686 415.666,-642.239 431.231,-584.595 439.446,-541.415"/><polygon fill="#f08080" stroke="#f08080" points="442.936 -541.789 441.283 -531.324 436.049 -540.535 442.936 -541.789"/><text x="443.5" y="-630.5" font-family="Times,serif" font-size="10" text-anchor="middle">p_buf</text></g><g id="node7" class="node"><title>1856421</title><ellipse cx="308" cy="-633" fill="#add8e6" stroke="#add8e6" rx="70.005" ry="52.152"/><text x="308" y="-658" font-family="Times,serif" font-size="10" text-anchor="middle">code:p_buf</text><text x="308" y="-647" font-family="Times,serif" font-size="10" text-anchor="middle">functionId:1856369</text><text x="308" y="-636" font-family="Times,serif" font-size="10" text-anchor="middle">childNum:0</text><text x="308" y="-625" font-family="Times,serif" font-size="10" text-anchor="middle">isCFGNode:True</text><text x="308" y="-614" font-family="Times,serif" font-size="10" text-anchor="middle">type:Condition</text><text x="308" y="-603" font-family="Times,serif" font-size="10" text-anchor="middle">id:1856421</text></g><g id="edge7" class="edge"><title>1856423-&gt;1856421</title><path fill="none" stroke="#add8e6" d="M288.275,-734.745C290.383,-728.486 292.352,-722.135 294,-716 295.787,-709.346 297.394,-702.325 298.826,-695.304"/><polygon fill="#add8e6" stroke="#add8e6" points="302.344 -695.543 300.8 -685.061 295.471 -694.219 302.344 -695.543"/></g><g id="edge8" class="edge"><title>1856423-&gt;1856421</title><path fill="none" stroke="#f08080" d="M261.255,-734.673C261.255,-724.375 262.249,-713.733 265,-704 266.479,-698.767 268.471,-693.541 270.79,-688.434"/><polygon fill="#f08080" stroke="#f08080" points="273.965 -689.911 275.279 -679.398 267.696 -686.796 273.965 -689.911"/><text x="277.5" y="-707.5" font-family="Times,serif" font-size="10" text-anchor="middle">p_buf</text></g><g id="edge9" class="edge"><title>1856441-&gt;1856423</title><path fill="none" stroke="#add8e6" d="M399.184,-892.947C379.941,-877.553 358.369,-860.296 338.364,-844.291"/><polygon fill="#add8e6" stroke="#add8e6" points="340.484 -841.505 330.489 -837.991 336.111 -846.971 340.484 -841.505"/></g><g id="edge10" class="edge"><title>1856441-&gt;1856423</title><path fill="none" stroke="#f08080" d="M412.991,-890.884C401.695,-879.575 389.28,-867.955 377,-858 370.797,-852.971 364.217,-847.991 357.485,-843.142"/><polygon fill="#f08080" stroke="#f08080" points="359.081 -839.985 348.893 -837.077 355.044 -845.703 359.081 -839.985"/><text x="401" y="-861.5" font-family="Times,serif" font-size="10" text-anchor="middle">p_sys</text></g><g id="edge11" class="edge"><title>1856441-&gt;1856381</title><path fill="none" stroke="#f08080" d="M556.928,-902.084C602.657,-877.507 647,-840.213 647,-788 647,-788 647,-788 647,-478 647,-447.104 638.346,-414.075 628.628,-386.725"/><polygon fill="#f08080" stroke="#f08080" points="631.898 -385.476 625.159 -377.3 625.329 -387.894 631.898 -385.476"/><text x="659" y="-630.5" font-family="Times,serif" font-size="10" text-anchor="middle">p_sys</text></g><g id="edge12" class="edge"><title>1856441-&gt;1856406</title><path fill="none" stroke="#f08080" d="M511.832,-892.088C525.264,-876.912 537.864,-859.074 545,-840 583.607,-736.804 527.987,-611.679 486.379,-539.412"/><polygon fill="#f08080" stroke="#f08080" points="489.197 -537.299 481.125 -530.436 483.155 -540.834 489.197 -537.299"/><text x="566" y="-707.5" font-family="Times,serif" font-size="10" text-anchor="middle">p_sys</text></g><g id="node8" class="node"><title>1856451</title><ellipse cx="249" cy="-45" fill="#add8e6" stroke="#add8e6" rx="70.005" ry="44.596"/><text x="249" y="-64.5" font-family="Times,serif" font-size="10" text-anchor="middle">id:1856451</text><text x="249" y="-53.5" font-family="Times,serif" font-size="10" text-anchor="middle">code:EXIT</text><text x="249" y="-42.5" font-family="Times,serif" font-size="10" text-anchor="middle">type:CFGExitNode</text><text x="249" y="-31.5" font-family="Times,serif" font-size="10" text-anchor="middle">functionId:1856369</text><text x="249" y="-20.5" font-family="Times,serif" font-size="10" text-anchor="middle">isCFGNode:True</text></g><g id="edge13" class="edge"><title>1856377-&gt;1856451</title><path fill="none" stroke="#add8e6" d="M249,-128.575C249,-119.144 249,-109.277 249,-99.7796"/><polygon fill="#add8e6" stroke="#add8e6" points="252.5 -99.656 249 -89.656 245.5 -99.656 252.5 -99.656"/></g><g id="edge14" class="edge"><title>1856381-&gt;1856377</title><path fill="none" stroke="#add8e6" d="M482.982,-276.123C429.802,-254.731 368.806,-230.194 322.427,-211.537"/><polygon fill="#add8e6" stroke="#add8e6" points="323.64 -208.253 313.057 -207.768 321.028 -214.747 323.64 -208.253"/></g><g id="edge15" class="edge"><title>1856406-&gt;1856381</title><path fill="none" stroke="#add8e6" d="M506.715,-429.673C514.705,-422.582 522.67,-415.229 530,-408 537.539,-400.565 545.218,-392.468 552.617,-384.353"/><polygon fill="#add8e6" stroke="#add8e6" points="555.227 -386.685 559.321 -376.913 550.026 -381.999 555.227 -386.685"/></g><g id="edge16" class="edge"><title>1856406-&gt;1856381</title><path fill="none" stroke="#f08080" d="M453.575,-426.395C456.582,-415.557 461.134,-404.768 468,-396 472.24,-390.585 477.016,-385.545 482.174,-380.861"/><polygon fill="#f08080" stroke="#f08080" points="484.614 -383.381 489.986 -374.249 480.092 -378.038 484.614 -383.381"/><text x="497" y="-399.5" font-family="Times,serif" font-size="10" text-anchor="middle">p_buf -&gt; i_pts</text></g><g id="edge17" class="edge"><title>1856421-&gt;1856377</title><path fill="none" stroke="#add8e6" d="M284.878,-583.42C278.259,-567.397 271.811,-549.254 268,-532 246.079,-432.745 244.675,-314.008 246.347,-243.468"/><polygon fill="#add8e6" stroke="#add8e6" points="249.847 -243.508 246.614 -233.419 242.849 -243.322 249.847 -243.508"/><text x="262" y="-399.5" font-family="Times,serif" font-size="10" text-anchor="middle">False</text></g><g id="edge18" class="edge"><title>1856421-&gt;1856406</title><path fill="none" stroke="#add8e6" d="M347.37,-589.255C362.169,-573.188 379.242,-554.651 395.074,-537.462"/><polygon fill="#add8e6" stroke="#add8e6" points="398.048 -539.399 402.249 -529.673 392.9 -534.657 398.048 -539.399"/><text x="392.5" y="-553.5" font-family="Times,serif" font-size="10" text-anchor="middle">True</text></g><g id="node9" class="node"><title>1856450</title><ellipse cx="425" cy="-1231" fill="#add8e6" stroke="#add8e6" rx="72.187" ry="44.596"/><text x="425" y="-1250.5" font-family="Times,serif" font-size="10" text-anchor="middle">id:1856450</text><text x="425" y="-1239.5" font-family="Times,serif" font-size="10" text-anchor="middle">code:ENTRY</text><text x="425" y="-1228.5" font-family="Times,serif" font-size="10" text-anchor="middle">type:CFGEntryNode</text><text x="425" y="-1217.5" font-family="Times,serif" font-size="10" text-anchor="middle">functionId:1856369</text><text x="425" y="-1206.5" font-family="Times,serif" font-size="10" text-anchor="middle">isCFGNode:True</text></g><g id="edge19" class="edge"><title>1856450-&gt;1856372</title><path fill="none" stroke="#add8e6" d="M425,-1186.12C425,-1177.04 425,-1167.32 425,-1157.73"/><polygon fill="#add8e6" stroke="#add8e6" points="428.5 -1157.43 425 -1147.43 421.5 -1157.43 428.5 -1157.43"/></g></g></svg>